# Blender 4.2.0
# www.blender.org
mtllib Doorway.mtl
o Doorway-col
v 0.060000 -0.000000 -0.885514
v 0.060000 1.500000 -0.885514
v -0.060000 -0.000000 -0.885514
v -0.060000 1.500000 -0.885514
v 0.060000 -0.000000 -1.005514
v 0.060000 1.500000 -1.005514
v -0.060000 -0.000000 -1.005514
v -0.060000 1.500000 -1.005514
v 0.060000 1.690000 -0.695514
v -0.060000 1.690000 -0.695514
v -0.060000 1.810000 -0.695514
v 0.060000 1.810000 -0.695514
v 0.060000 -0.000000 -0.005514
v 0.060000 1.500000 -0.005514
v -0.060000 -0.000000 -0.005514
v -0.060000 1.500000 -0.005514
v 0.060000 -0.000000 0.114486
v 0.060000 1.500000 0.114486
v -0.060000 -0.000000 0.114486
v -0.060000 1.500000 0.114486
v 0.060000 1.690000 -0.195514
v -0.060000 1.690000 -0.195514
v -0.060000 1.810000 -0.195514
v 0.060000 1.810000 -0.195514
vn -0.0000 -0.0000 1.0000
vn -1.0000 -0.0000 -0.0000
vn -0.0000 -0.0000 -1.0000
vn 1.0000 -0.0000 -0.0000
vn -0.0000 -1.0000 -0.0000
vn -0.0000 0.7071 -0.7071
vn -0.0000 -0.7071 0.7071
vn -0.0000 0.7071 0.7071
vn -0.0000 -0.7071 -0.7071
vn -0.0000 1.0000 -0.0000
vt 0.375000 0.000000
vt 0.625000 0.000000
vt 0.625000 0.250000
vt 0.375000 0.250000
vt 0.625000 0.500000
vt 0.375000 0.500000
vt 0.625000 0.750000
vt 0.375000 0.750000
vt 0.625000 1.000000
vt 0.375000 1.000000
vt 0.125000 0.500000
vt 0.125000 0.750000
s 0
usemtl Material.006
f 1/1/1 2/2/1 4/3/1 3/4/1
f 3/4/2 4/3/2 8/5/2 7/6/2
f 7/6/3 8/5/3 6/7/3 5/8/3
f 5/8/4 6/7/4 2/9/4 1/10/4
f 3/11/5 7/6/5 5/8/5 1/12/5
f 8/5/2 4/3/2 10/3/2 11/5/2
f 6/7/6 8/5/6 11/5/6 12/7/6
f 4/3/7 2/2/7 9/2/7 10/3/7
f 2/9/4 6/7/4 12/7/4 9/9/4
f 13/1/3 15/4/3 16/3/3 14/2/3
f 15/4/2 19/6/2 20/5/2 16/3/2
f 19/6/1 17/8/1 18/7/1 20/5/1
f 17/8/4 13/10/4 14/9/4 18/7/4
f 15/11/5 13/12/5 17/8/5 19/6/5
f 20/5/2 23/5/2 22/3/2 16/3/2
f 18/7/8 24/7/8 23/5/8 20/5/8
f 16/3/9 22/3/9 21/2/9 14/2/9
f 14/9/4 21/9/4 24/7/4 18/7/4
f 10/3/5 9/2/5 21/2/5 22/3/5
f 9/2/4 12/7/4 24/7/4 21/2/4
f 12/7/10 11/5/10 23/5/10 24/7/10
f 11/5/2 10/3/2 22/3/2 23/5/2
